<svg width="174" height="82" viewBox="0 0 174 82" fill="none" xmlns="http://www.w3.org/2000/svg">
<path d="M11.538 35.9444L11.3801 33.7867C11.2748 32.7867 11.2222 32.1552 11.1169 31.5763C10.959 31.05 10.7485 30.8921 9.22231 30.8921C7.69608 30.8921 7.48558 30.9974 7.3277 31.4184C7.16981 31.9447 7.06453 32.6288 6.90664 33.3656C6.80139 33.7867 6.74877 34.4182 6.59089 35.5234C6.48563 36.3655 6.22247 36.7865 5.32779 36.7865C5.1699 36.7865 4.53837 36.8391 3.43318 36.8391C2.43324 36.8391 1.69642 36.8391 1.11751 36.7865C0.433341 36.7339 0.0649414 36.6286 0.0649414 36.1023C0.0649414 35.8918 0.170224 35.3129 0.222853 34.9971L0.643874 32.3657C1.27542 28.6817 1.85433 24.9451 2.48587 21.2611C2.9069 18.577 3.32793 15.7351 3.80158 13.0511C4.22261 10.6301 4.53837 8.525 5.01203 6.20935C5.16992 5.78832 5.32781 5.63044 5.74884 5.52518C6.16987 5.41992 6.80139 5.41992 7.80133 5.41992C8.4855 5.41992 9.53807 5.47255 10.3275 5.47255C10.959 5.47255 11.8011 5.41992 12.2221 5.41992C12.9589 5.41992 13.38 5.57781 13.5379 6.20935L13.9589 8.20923C15.1693 14.1562 15.9061 20.1559 17.0113 26.2082C17.485 28.9975 17.8534 31.7868 18.327 34.5761C18.4323 35.0498 18.4849 35.4708 18.4849 35.8392C18.4849 36.3655 18.3797 36.7865 17.8007 36.7865H15.5903C14.9062 36.7865 14.0115 36.8918 13.1168 36.8918C11.9064 36.8918 11.5906 36.7339 11.538 35.9444ZM10.117 25.5766C10.538 25.5766 10.6433 25.5766 10.6433 25.1556C10.6433 24.5767 10.4854 22.6294 10.2223 20.9453C10.117 20.3138 10.0117 19.3138 9.95912 18.7349C9.85386 17.8402 9.64332 16.2614 9.53807 15.5772C9.38018 14.5773 9.38019 14.2615 9.11705 14.2615C8.90653 14.2615 8.85391 14.5773 8.69602 15.5772L8.275 18.6823C8.11712 19.8401 8.01185 21.1558 7.9066 21.9453C7.74871 22.9978 7.59084 24.5241 7.59084 25.2082C7.59084 25.4714 7.69608 25.524 8.06448 25.524H10.117V25.5766Z" fill="white"/>
<path d="M29.2214 12.6305L29.1688 14.7356V16.3671C29.1688 16.9987 29.1688 18.1038 29.1162 18.6828C29.0635 19.2617 28.9583 19.3669 28.5899 19.4196C27.5373 19.4722 26.8531 19.9985 26.6426 20.8405C26.4321 21.7878 26.3795 23.0509 26.4321 24.2088C26.4847 25.2613 26.5374 26.2086 26.5374 27.3138L26.59 31.261C26.59 33.1556 26.6953 34.7344 26.6953 35.4186C26.6953 35.8396 26.59 36.3133 26.3269 36.4712C25.9058 36.7343 25.4848 36.787 24.0112 36.787H21.3798C20.6956 36.787 20.3272 36.6291 20.222 35.9975C20.1693 35.787 20.1693 34.7344 20.1693 33.7871L20.1167 29.8926C20.1167 27.998 20.1693 25.5245 20.1693 23.3141V18.6301C20.1693 16.7355 20.1167 15.2619 20.1167 13.4199C20.1167 12.6831 20.2746 12.2621 21.4324 12.2621H22.0113C22.6955 12.2621 23.5375 12.2095 24.2743 12.2095C25.0111 12.2095 25.0638 12.5252 25.1164 13.5252L25.2743 16.5776C25.5901 14.8935 26.2742 13.4725 26.8531 12.841C27.3794 12.2621 27.9583 11.9463 28.7478 11.9463C29.1161 11.8937 29.2214 12.1042 29.2214 12.6305Z" fill="white"/>
<path d="M32.9052 35.4182C32.1684 34.4182 31.8527 32.9446 31.8527 31.1553C31.8527 29.8395 31.9053 28.2081 31.9053 26.7345C31.9053 25.5766 31.8527 24.4714 31.8527 22.9978C31.8527 21.8926 31.9053 20.1559 31.9053 19.6296C31.9053 19.4191 31.8 19.3665 31.2738 19.3665H31.0632C30.7475 19.3665 30.6422 19.1033 30.6422 18.6297L30.6948 16.0509C30.6948 15.3141 30.6422 14.4194 30.6422 13.9984C30.6422 13.6826 30.6422 13.5247 31.0106 13.5247H31.6948C31.9579 13.5247 32.0105 13.3668 32.0105 13.1037L31.9579 10.7354L31.9053 8.78816C31.9053 7.63033 32.1684 7.36719 33.0631 7.36719C33.8525 7.36719 34.4314 7.41982 35.063 7.41982C35.7998 7.41982 36.4313 7.36719 36.8524 7.36719C37.1681 7.36719 37.4839 7.41982 37.6944 7.5777C37.9049 7.73559 38.1155 8.05136 38.1155 8.47239C38.1155 9.94598 38.0628 11.4196 38.0628 13.0511C38.0628 13.4195 38.1154 13.5773 38.326 13.5773L39.6943 13.5247C40.2206 13.5247 40.2732 13.6826 40.3785 14.2615C40.4311 14.5773 40.4837 15.2088 40.4837 15.6825C40.4837 16.6824 40.4837 17.5771 40.3785 18.5771C40.3259 18.9981 40.2732 19.2086 39.9048 19.2086C38.5891 19.2086 38.2733 19.2612 38.1681 19.4717C38.0628 19.6296 38.0628 19.8928 38.0102 20.7348C37.9576 21.7874 37.9576 24.4714 37.9576 25.2082C37.9576 26.4187 37.9049 28.1554 38.0102 29.3659C38.0628 29.9974 38.2207 30.5763 38.4312 30.7869C38.6944 31.05 39.168 31.2079 39.7469 31.2079C40.168 31.2079 40.3258 31.3131 40.3258 31.6815V33.6814C40.3258 34.2077 40.3785 35.155 40.3785 35.9444C40.3785 36.4707 40.1679 36.6812 39.5364 36.8391C38.6943 37.0496 37.9576 37.1549 36.7997 37.1549C35.1156 37.1023 33.642 36.4707 32.9052 35.4182Z" fill="white"/>
<path d="M45.7467 40.9976C45.7467 36.1031 45.7993 31.2087 45.7993 26.209C45.7993 19.3146 45.7467 12.5256 45.7467 5.63125V0.842056C45.7467 0.263142 45.7993 0 46.5361 0H47.8518C48.5886 0 48.7465 0.105257 48.7465 0.421028C48.7465 6.05227 48.7991 11.7362 48.7991 17.3148C48.7991 23.7354 48.7465 30.1035 48.7465 36.5242V40.4187C48.7465 41.1555 48.6939 41.4186 48.2202 41.4186H46.7466C45.8519 41.4186 45.7467 41.3134 45.7467 40.9976Z" fill="white"/>
<path d="M71.2715 27.1016C71.2715 30.154 70.5873 32.5223 69.3242 34.259C67.798 36.2589 66.1665 37.0483 61.9036 37.0483H57.4302C55.5882 37.0483 55.1145 36.6799 55.0619 35.3116C55.0093 34.1011 55.0093 32.6802 55.0093 31.6276C55.0093 30.3119 55.1145 25.8911 55.1145 24.207V17.0495C55.1145 14.9444 55.1145 11.9972 55.1145 10.7341C55.1145 9.10262 55.0619 7.78691 55.0619 6.31331C55.0619 5.78703 55.0619 5.52388 56.0092 5.41863C57.0618 5.31337 58.4828 5.26074 60.4827 5.26074H61.3247C66.1665 5.26074 67.6927 6.1028 68.9558 7.47114C70.1663 8.78685 70.7978 10.9972 70.7978 13.3655C70.7978 15.8917 70.2189 18.2073 68.6401 19.5757C70.3768 20.7335 71.2715 23.2071 71.2715 27.1016ZM64.7455 26.5753C64.7455 25.8385 64.6403 24.7859 64.3771 23.9965C64.114 23.2071 63.6403 22.6808 62.693 22.6808C61.5878 22.6808 61.3773 23.1018 61.3773 23.5228C61.3773 24.5754 61.3247 25.7332 61.3247 26.47C61.3247 27.7857 61.2721 29.4172 61.3773 30.4698C61.4299 31.1013 61.6405 31.4171 62.1667 31.4171C63.4824 31.4171 64.0087 30.7329 64.3771 29.6277C64.6403 28.733 64.7455 27.47 64.7455 26.5753ZM61.43 14.155C61.43 15.2075 61.3773 16.3653 61.3773 16.9443C61.3773 17.7337 61.7457 17.9968 62.4299 17.9968C62.8509 17.9968 63.272 17.8916 63.6404 17.5758C64.0614 17.1548 64.4824 16.418 64.4824 14.155C64.4824 11.5235 63.7982 10.9446 62.3773 10.9446C61.6405 10.9446 61.3773 11.1025 61.3773 11.4709C61.3773 12.2603 61.43 13.3655 61.43 14.155Z" fill="white"/>
<path d="M74.3239 35.5236C73.6398 34.7342 73.2187 33.3659 73.0608 31.9975C72.903 30.6818 72.8503 29.524 72.8503 28.3662C72.8503 27.6294 72.8503 26.7347 73.0608 24.9979C73.2187 23.4717 73.9555 21.9981 75.0607 20.9982C75.9028 20.2614 76.9553 19.9456 78.1658 19.9456C79.0079 19.9456 79.7973 20.1035 80.2709 20.2087C80.6393 20.314 81.0077 20.4193 81.3235 20.4193C81.7445 20.4193 81.9551 20.0509 81.9551 19.5246C81.9551 19.1035 81.7972 18.6299 81.534 18.3668C81.0078 17.8405 80.2183 17.63 79.271 17.63C78.5342 17.63 77.7448 17.7878 77.2711 17.8931C76.7975 17.9984 76.3764 18.2089 75.9554 18.3141C75.5344 18.472 75.1134 18.5773 74.745 18.5773C74.4818 18.5773 74.2713 18.5246 74.0608 18.3668C73.8503 18.2089 73.8503 17.8405 73.7976 17.4194C73.745 16.9984 73.745 16.6826 73.745 15.8406V13.946C73.745 13.3144 73.9029 12.946 74.3765 12.7355C74.8502 12.525 76.008 12.2618 77.3238 12.0513C78.2711 11.8934 79.1131 11.8408 80.4288 11.8408C82.4287 11.8408 83.9023 12.2618 85.2706 12.9986C86.8495 13.8933 87.5337 15.788 87.7442 17.2616C87.9021 18.472 87.8495 19.8403 87.8495 21.2613L87.9021 26.4715C87.9021 29.103 87.9547 30.6818 87.9547 32.4186C87.9547 33.3659 87.8495 34.2079 87.8495 35.1552V36.1025C87.7968 36.5236 87.2705 36.6815 86.5337 36.6815H84.5338C84.2707 36.6815 83.2181 36.6815 82.6918 36.6815C82.4287 36.6815 82.3235 36.5236 82.3235 36.2604V35.5236C82.3235 35.2605 82.2182 35.1026 82.0077 35.1026C81.7972 35.1026 81.4814 35.5763 81.113 35.892C80.4288 36.6288 79.4289 36.9446 78.0079 36.9446C76.4817 37.1025 75.2186 36.6288 74.3239 35.5236ZM81.6919 30.2608C81.7445 29.2082 81.7445 27.4188 81.7445 26.8926C81.7445 26.261 81.7445 25.84 81.5867 25.3663C81.4288 24.8927 81.1656 24.5243 80.4815 24.5243C80.0078 24.5243 79.4289 24.7874 79.271 25.3663C79.1131 25.8926 79.0605 26.4189 79.0605 27.3136C79.0605 28.4714 79.0605 29.3661 79.1131 30.3134C79.1657 31.2607 79.5341 32.1554 80.4288 32.1554C81.2709 32.1554 81.6393 31.4712 81.6919 30.2608Z" fill="white"/>
<path d="M91.0597 36.7875C90.6387 36.6296 90.3229 36.4191 90.165 36.2086C90.0071 35.9981 89.8492 35.7349 89.8492 34.735V32.4719C89.8492 31.472 89.9019 31.2089 90.0071 30.9983C90.165 30.8405 90.3229 30.7878 90.4808 30.7878C90.7439 30.7878 91.0597 30.8931 91.3754 30.9457C92.1122 31.1562 92.5859 31.3667 93.2701 31.3667C94.3227 31.3667 94.9542 30.6826 94.9542 29.3142C94.9542 28.2617 94.6384 27.6828 94.27 27.2091C93.9016 26.7354 93.428 26.3144 92.9017 25.7881C92.2701 25.1566 91.6912 24.4724 91.1123 23.6304C90.3229 22.5252 89.8492 20.6305 89.8492 18.9991C89.8492 17.4728 90.0071 16.0519 91.0071 14.473C92.0596 12.8415 93.428 11.7363 96.3225 11.7363C97.1646 11.7363 98.1645 11.8942 98.8487 12.0521C99.6908 12.2626 100.164 12.5258 100.217 13.2099C100.27 13.9467 100.27 14.5256 100.27 15.1572V17.2097C100.27 17.9465 100.112 18.1044 99.5329 18.1044C99.1645 18.1044 98.7961 17.9991 98.4277 17.8939C98.0593 17.736 97.6909 17.6833 97.2172 17.6833C96.4804 17.6833 96.0068 18.1044 96.0068 18.9991C96.0068 19.5253 96.1647 19.999 96.4278 20.3148C96.7962 20.7358 97.1646 21.0516 97.9014 21.8936C98.5329 22.6304 99.375 23.683 100.007 24.7356C100.691 25.8408 101.059 27.5249 101.059 29.3142C101.059 31.6299 100.428 33.2614 99.4802 34.5245C98.2698 36.1033 96.533 37.1559 94.0069 37.1559C92.849 37.2085 91.8491 37.1033 91.0597 36.7875Z" fill="white"/>
<path d="M106.006 35.8402C104.69 34.8402 103.953 33.8929 103.374 32.2614C102.848 30.7352 102.637 28.6301 102.585 25.9986C102.532 24.5251 102.532 23.262 102.637 21.7357C102.743 20.2095 102.848 18.6307 103.269 17.1044C103.69 15.3677 104.374 14.2625 105.585 13.1573C106.637 12.2626 107.953 11.7363 110.163 11.7363C112.321 11.7363 114.163 12.3679 115.531 14.2099C116.426 15.4203 116.689 16.736 116.9 17.736C117.11 18.7359 117.321 20.2095 117.321 21.42C117.321 22.7883 117.268 24.525 117.163 25.525C117.11 26.1565 117.058 26.367 117.005 26.5776C116.795 27.788 116.11 28.3669 114.742 28.3669C114.005 28.3669 113.216 28.3143 112.479 28.3143H110.69C109.637 28.3143 109.269 28.4196 109.058 28.5248C108.848 28.6827 108.742 28.9458 108.742 29.209C108.742 29.7879 109.006 30.1563 109.427 30.4721C110.058 30.9457 110.742 31.2089 111.795 31.2089C112.532 31.2089 113.111 31.1562 113.795 30.9457C114.216 30.7878 114.689 30.63 115.005 30.5247C115.321 30.3668 115.742 30.2089 116.058 30.2089C116.637 30.2089 116.952 30.4721 116.952 31.1036C116.952 31.6299 116.952 32.2088 116.9 32.6825C116.847 33.2614 116.847 34.3139 116.742 34.9455C116.584 35.9981 116.11 36.4191 115.005 36.7349C113.689 37.1033 112.637 37.1559 111.216 37.1559C108.953 37.2085 107.374 36.8401 106.006 35.8402ZM111.111 23.683C111.269 23.5251 111.269 22.7357 111.269 22.0515C111.269 21.2095 111.269 20.5779 111.216 20.0516C111.163 19.3675 111.111 18.7359 110.953 18.2623C110.795 17.8412 110.426 17.5255 109.9 17.5255C109.269 17.5255 108.9 17.8939 108.795 18.5254C108.637 19.4201 108.584 20.6305 108.584 21.9463C108.584 23.262 108.69 23.5777 109.006 23.7883C109.163 23.8935 109.427 23.9461 109.742 23.9461C110.637 23.8409 110.953 23.7883 111.111 23.683Z" fill="white"/>
<path d="M119.532 35.4177C119.532 35.0493 119.637 33.6283 119.637 31.6284C119.637 29.5233 119.69 27.5234 119.69 25.4183C119.69 23.5763 119.584 21.5238 119.584 20.1554C119.584 18.8397 119.637 16.7872 119.637 15.8925L119.584 11.3139C119.584 9.10346 119.532 7.26146 119.532 6.57729C119.532 5.52472 119.795 5.4721 120.637 5.36684C121.532 5.26158 123.374 5.20895 124.9 5.31421C125.637 5.36684 126.11 5.73524 126.11 6.68255C126.11 7.78775 126.058 9.05083 126.058 10.5771C126.058 14.1558 125.952 17.5766 125.952 21.1554L126.005 27.2077C126.005 28.2602 126.058 30.7864 126.058 31.9442V35.4177C126.058 35.9966 126.058 36.4703 125.9 36.7334C125.742 36.8913 125.584 36.9966 125.11 36.9966C124.479 36.9966 123.952 36.9439 123.216 36.9439C122.426 36.9439 121.321 37.1018 120.795 37.1018C120.058 37.1544 119.532 36.786 119.532 35.4177Z" fill="white"/>
<path d="M7.53808 65.5218C7.53808 67.8375 7.48545 68.9427 7.53808 70.9425C7.59071 72.9424 7.64334 75.9949 7.64334 78.3105C7.64334 80.0473 7.53809 80.5209 7.48546 80.7841C7.43284 81.1525 7.22231 81.2577 6.48551 81.3104C5.38031 81.4156 4.22249 81.4156 3.16992 81.4156C2.59101 81.4156 2.32788 81.363 2.06474 81.2577C1.69634 81.0998 1.53845 80.8893 1.53845 80.363C1.53845 79.9946 1.69633 68.469 1.69633 60.1537C1.69633 58.1538 1.74895 56.3118 1.74895 54.8909V51.5753C1.74895 50.5227 2.06472 50.2069 2.80152 50.2069H4.06461C4.80141 50.2069 5.27507 50.1543 7.32758 50.1543C8.16964 50.1543 8.3275 50.3122 8.48539 51.1016L9.5906 55.4698L10.8011 60.5747C10.9589 61.2589 11.0642 61.4694 11.3273 61.4694C11.5905 61.4694 11.6957 61.2589 11.8536 60.5747L13.3272 54.6803L14.064 51.2595C14.2219 50.4701 14.8008 50.2069 15.7481 50.2069C16.4323 50.1543 17.1691 50.1543 17.6428 50.1543C18.9585 50.1543 19.5374 50.2069 20.1689 50.3122C20.8005 50.4174 20.8531 50.6806 20.8531 51.6279V60.5221C20.8531 62.7851 20.7478 65.0482 20.7478 67.3112V77.1527C20.7478 79.7315 20.6952 80.3104 20.6426 80.6262C20.5373 81.2051 20.1689 81.4682 19.59 81.4682L15.1166 81.5209C14.4324 81.5209 14.3272 81.4156 14.3272 80.0473C14.3272 78.4158 14.485 76.7843 14.485 74.5213C14.485 73.3108 14.5903 71.4688 14.5903 70.2584C14.5903 68.9427 14.6956 67.4164 14.6956 66.0481C14.6956 65.1534 14.6429 64.8376 14.4324 64.8376C14.1693 64.8376 14.064 65.2587 13.9061 66.1007L13.2219 69.5742C12.8535 71.2583 12.6431 72.9951 12.3273 74.7318C12.1694 75.4686 11.7484 75.6265 11.1168 75.6265C10.38 75.6265 10.0643 75.3633 9.85374 74.6792C9.43272 73.1003 9.22221 71.5215 8.90644 69.9426C8.6433 68.6795 8.43277 67.2059 8.16963 65.9955C8.01174 65.0482 7.9591 64.785 7.69596 64.785C7.64333 64.6798 7.53808 64.9955 7.53808 65.5218Z" fill="white"/>
<path d="M24.3791 55.3122C24.1159 55.2069 23.9581 55.1017 23.9054 54.6807C23.8528 54.3649 23.8528 53.9965 23.8528 53.6281V51.3124C23.8528 50.523 24.0107 50.3125 24.5369 50.3125C25.1685 50.3125 26.3263 50.3651 27.2736 50.3651H29.5893H30.0629C30.5366 50.3651 30.6945 50.6809 30.6945 51.523V54.3123C30.6945 55.1017 30.5366 55.3648 29.8524 55.3648H27.9052L25.6948 55.4175C25.1159 55.4175 24.6422 55.4175 24.3791 55.3122ZM27.0631 81.4686C26.3263 81.4686 25.5895 81.5212 24.958 81.5212C24.537 81.5212 24.3264 81.4159 24.2212 81.2054C24.1159 80.9949 24.0633 80.5212 24.0633 79.9423C24.0633 78.6266 24.1159 77.3635 24.1159 76.4689L24.1686 71.7323C24.1686 70.7324 24.1686 66.5747 24.1686 65.68C24.1686 62.1013 24.0107 59.4172 24.0107 58.312C24.0107 57.3121 24.4843 56.9437 25.2211 56.8911C26.8 56.7858 28.5894 56.7858 29.484 56.9437C30.3261 57.1016 30.5366 57.1016 30.5366 58.2594L30.484 60.4698C30.484 61.2592 30.5366 63.3644 30.5366 64.7327C30.5366 66.101 30.4313 68.1536 30.4313 69.9429C30.4313 72.0481 30.484 74.1006 30.484 76.2057C30.484 78.2056 30.5366 79.5739 30.5366 79.995C30.5366 81.3107 30.0629 81.6264 29.2209 81.6264C28.7472 81.5738 27.7999 81.4686 27.0631 81.4686Z" fill="white"/>
<path d="M34.326 80.1525C33.6418 79.3631 33.2208 77.9948 33.0629 76.6264C32.905 75.3107 32.8524 74.1529 32.8524 72.9951C32.8524 72.2583 32.8524 71.3636 33.0629 69.6268C33.2208 68.1006 33.9576 66.627 35.0628 65.6271C35.9048 64.8903 36.9574 64.5745 38.1679 64.5745C39.0099 64.5745 39.7994 64.7324 40.273 64.8377C40.6414 64.9429 41.0098 65.0482 41.3256 65.0482C41.7466 65.0482 41.9571 64.6798 41.9571 64.1535C41.9571 63.7325 41.7993 63.2588 41.5361 62.9957C41.0098 62.4694 40.2204 62.2589 39.2731 62.2589C38.5363 62.2589 37.7468 62.4167 37.2732 62.522C36.7995 62.6799 36.3785 62.8378 35.9575 62.943C35.5364 63.0483 35.1154 63.2062 34.747 63.2062C34.4839 63.2062 34.2734 63.1535 34.0629 62.9957C33.905 62.8378 33.8524 62.4694 33.7997 62.0483C33.7471 61.6273 33.7471 61.3115 33.7471 60.4695V58.5749C33.7471 57.9433 33.905 57.5749 34.3786 57.3644C34.8523 57.1539 36.0101 56.8908 37.3258 56.6802C38.2731 56.5224 39.1152 56.4697 40.4309 56.4697C42.4308 56.4697 43.9044 56.8908 45.2727 57.6276C46.8516 58.5222 47.5358 60.4169 47.7463 61.8905C47.9042 63.1009 47.8515 64.4693 47.8515 65.8902L47.9041 71.1004C47.9041 73.7319 47.9568 75.3107 47.9568 77.0475C47.9568 77.9948 47.8515 78.8368 47.8515 79.7841V80.7314C47.7989 81.1525 47.2726 81.3104 46.5358 81.3104H44.5359C44.2728 81.3104 43.2202 81.3104 42.6939 81.3104C42.4308 81.3104 42.3255 81.1525 42.3255 80.8893V80.1525C42.3255 79.8894 42.2203 79.7315 42.0098 79.7315C41.7992 79.7315 41.4835 80.2052 41.1151 80.5209C40.4309 81.2577 39.431 81.5735 38.01 81.5735C36.4838 81.7314 35.2207 81.2577 34.326 80.1525ZM41.694 74.8897C41.7466 73.8371 41.7466 72.0477 41.7466 71.5215C41.7466 70.8899 41.7466 70.4689 41.5887 69.9952C41.4308 69.5216 41.1677 69.1532 40.4835 69.1532C40.0099 69.1532 39.431 69.4163 39.2731 69.9952C39.1152 70.5215 39.0626 71.0478 39.0626 71.9425C39.0626 73.1003 39.0626 73.995 39.1152 74.9423C39.1678 75.8896 39.5362 76.7843 40.4309 76.7843C41.273 76.7843 41.6414 76.1001 41.694 74.8897Z" fill="white"/>
<path d="M50.9041 80.6785C50.8515 80.3101 50.7988 78.5734 50.8514 76.8366C50.9041 74.9946 50.8514 70.2054 50.8514 68.7845C50.8514 68.2582 50.9567 66.8898 50.9041 65.3636C50.8515 63.5216 50.7988 61.5744 50.7988 60.6797V57.8378C50.7988 57.1536 51.1672 57.101 51.5356 56.9957C52.1672 56.8378 53.0618 56.8904 53.746 56.8904C54.6407 56.8904 55.5354 56.7852 56.3248 56.9431C56.588 56.9957 56.7458 57.0483 56.7458 57.4167C56.7458 57.6272 56.7459 58.4167 56.7985 58.5745C56.8511 58.8377 56.9564 58.8903 57.0616 58.8903C57.3774 58.8903 57.6405 58.2061 57.9563 57.8378C58.2194 57.4694 58.6931 57.101 59.1668 56.8378C59.7457 56.5747 60.4825 56.4168 61.2193 56.4168C62.7455 56.4168 63.6928 57.0483 64.4822 57.8904C64.8506 58.3114 65.219 58.9429 65.5348 58.9429C65.9558 58.9429 66.2716 58.2061 66.64 57.6799C66.9558 57.2588 67.4294 56.8904 67.9557 56.6273C68.482 56.4168 69.1135 56.3115 69.903 56.3115C71.5344 56.3115 72.4291 56.8378 73.1659 57.5746C73.7448 58.1535 74.1132 58.9429 74.3238 59.6797C74.5343 60.4165 74.7448 61.3639 74.7974 62.2585C74.85 63.1532 74.9027 64.5742 74.9027 65.5741C74.9027 69.2055 74.85 70.3633 74.85 73.6789L74.9027 78.2576C74.9027 78.8891 74.9553 79.4154 74.9553 79.9943C74.9553 81.2048 74.5869 81.3627 73.5343 81.3627C72.8502 81.3627 72.166 81.3101 71.4818 81.3101L69.4819 81.3627C69.0609 81.3627 68.5872 81.1522 68.5872 80.5733V78.9418L68.5346 72.5211C68.5346 70.4686 68.5872 68.2056 68.5872 66.153V64.3111C68.5872 63.5743 68.5346 63.1006 68.4294 62.8375C68.2715 62.5743 67.9557 62.3638 67.4294 62.3638C66.9558 62.3638 66.5347 62.5217 66.3768 62.8901C66.219 63.2585 66.1663 63.7321 66.1663 64.4689V65.732C66.1663 69.3108 66.1137 70.3107 66.1137 73.6789L66.1663 78.2576C66.1663 78.8891 66.219 79.4154 66.219 79.9943C66.219 81.2048 65.8506 81.3627 64.7454 81.3627C64.1138 81.3627 63.3244 81.3101 62.6402 81.3101L60.693 81.3627C60.2719 81.3627 59.9562 81.1522 59.8509 80.5733C59.7983 80.2049 59.7983 79.6786 59.7983 78.9418L59.7457 72.5211C59.7457 70.4686 59.8509 68.2582 59.8509 66.153V64.3111C59.8509 63.5743 59.693 63.1006 59.5878 62.8375C59.4299 62.5743 59.1141 62.3638 58.5878 62.3638C58.1668 62.3638 57.7458 62.5217 57.5353 62.8901C57.3248 63.2585 57.2721 63.7321 57.2721 64.4689L57.3248 68.8897V72.679C57.3248 73.7842 57.3248 76.4682 57.3248 79.7312C57.3248 80.3101 57.2721 80.7311 57.1669 80.889C56.9563 81.3101 56.4827 81.3627 56.1143 81.3627C55.2722 81.3627 54.4302 81.2048 53.6408 81.2574L51.7988 81.3627C51.2725 81.4679 50.9567 81.0469 50.9041 80.6785Z" fill="white"/>
<path d="M78.2183 55.3122C77.9552 55.2069 77.7973 55.1017 77.7447 54.6807C77.692 54.3649 77.692 53.9965 77.692 53.6281V51.3124C77.692 50.523 77.8499 50.3125 78.3762 50.3125C79.0078 50.3125 80.1656 50.3651 81.1129 50.3651H83.4285H83.9022C84.3759 50.3651 84.5337 50.6809 84.5337 51.523V54.3123C84.5337 55.1017 84.3758 55.3648 83.6917 55.3648H81.7444L79.534 55.4175C78.9551 55.4175 78.4814 55.4175 78.2183 55.3122ZM80.9024 81.4686C80.1656 81.4686 79.4288 81.5212 78.7972 81.5212C78.3762 81.5212 78.1657 81.4159 78.0604 81.2054C77.9025 80.9949 77.9025 80.5212 77.9025 79.9423C77.9025 78.6266 77.9552 77.3635 77.9552 76.4689L78.0078 71.7323C78.0078 70.7324 78.0078 66.5747 78.0078 65.68C78.0078 62.1013 77.8499 59.4172 77.8499 58.312C77.8499 57.3121 78.3236 56.9437 79.0604 56.8911C80.6392 56.7858 82.4286 56.7858 83.3233 56.9437C84.1653 57.1016 84.3758 57.1016 84.3758 58.2594L84.3232 60.4698C84.3232 61.2592 84.3758 63.3644 84.3758 64.7327C84.3758 66.101 84.2706 68.1536 84.2706 69.9429C84.2706 72.0481 84.3232 74.1006 84.3232 76.2057C84.3232 78.2056 84.3758 79.5739 84.3758 79.995C84.3758 81.3107 83.9022 81.6264 83.0601 81.6264C82.5865 81.5738 81.6392 81.4686 80.9024 81.4686Z" fill="white"/>
<path d="M109.532 71.7314C109.532 74.7839 108.848 77.1522 107.585 78.8889C106.059 80.8888 104.427 81.6782 100.164 81.6782H95.691C93.849 81.6782 93.3754 81.3098 93.3228 79.9415C93.2701 78.731 93.2701 77.3101 93.2701 76.2575C93.2701 74.9418 93.3754 70.521 93.3754 68.8369V61.6794C93.3754 59.5743 93.3754 56.6271 93.3754 55.364C93.3754 53.7325 93.3228 52.4168 93.3228 50.9432C93.3228 50.4169 93.3228 50.1538 94.2701 50.0485C95.3226 49.9433 96.7436 49.8906 98.7435 49.8906H99.5856C104.427 49.8906 105.954 50.7327 107.217 52.101C108.427 53.4167 109.059 55.6271 109.059 57.9954C109.059 60.5216 108.48 62.8372 106.901 64.2056C108.638 65.3634 109.532 67.8369 109.532 71.7314ZM103.006 71.2052C103.006 70.4684 102.901 69.4158 102.638 68.6264C102.375 67.8369 101.901 67.3106 100.954 67.3106C99.8487 67.3106 99.6382 67.7317 99.6382 68.1527C99.6382 69.2053 99.5856 70.3631 99.5856 71.0999C99.5856 72.4156 99.5329 74.0471 99.6382 75.0997C99.6908 75.7312 99.9013 76.047 100.428 76.047C101.743 76.047 102.27 75.3628 102.638 74.2576C102.954 73.3629 103.006 72.0998 103.006 71.2052ZM99.7434 58.7848C99.7434 59.8374 99.6908 60.9952 99.6908 61.5741C99.6908 62.3636 100.059 62.6267 100.743 62.6267C101.164 62.6267 101.585 62.5215 101.954 62.2057C102.375 61.7847 102.796 61.0479 102.796 58.7848C102.796 56.1534 102.112 55.5745 100.691 55.5745C99.9539 55.5745 99.6908 55.7324 99.6908 56.1008C99.6908 56.8902 99.7434 58.048 99.7434 58.7848Z" fill="white"/>
<path d="M114.69 80.4691C113.374 79.4691 112.637 78.5218 112.058 76.8903C111.532 75.3641 111.322 73.259 111.269 70.6276C111.216 69.154 111.216 67.8909 111.322 66.3646C111.427 64.8384 111.532 63.2596 111.953 61.7333C112.374 59.9966 113.058 58.8914 114.269 57.7862C115.321 56.8915 116.637 56.3652 118.847 56.3652C121.005 56.3652 122.847 56.9968 124.216 58.8388C125.11 60.0492 125.373 61.3649 125.584 62.3649C125.794 63.3648 126.005 64.8384 126.005 66.0489C126.005 67.4172 125.952 69.154 125.847 70.1539C125.794 70.7854 125.742 70.996 125.689 71.2065C125.479 72.4169 124.794 72.9958 123.426 72.9958C122.689 72.9958 121.9 72.9432 121.163 72.9432H119.374C118.321 72.9432 117.953 73.0485 117.742 73.1537C117.532 73.3116 117.426 73.5747 117.426 73.8379C117.426 74.4168 117.69 74.7852 118.111 75.101C118.742 75.5746 119.426 75.8378 120.479 75.8378C121.216 75.8378 121.795 75.7851 122.479 75.5746C122.9 75.4167 123.373 75.2589 123.689 75.1536C124.005 74.9957 124.426 74.8378 124.742 74.8378C125.321 74.8378 125.637 75.101 125.637 75.7325C125.637 76.2588 125.636 76.8377 125.584 77.3114C125.531 77.8903 125.531 78.9429 125.426 79.5744C125.268 80.627 124.794 81.048 123.689 81.3638C122.374 81.7322 121.321 81.7848 119.9 81.7848C117.637 81.89 116.006 81.469 114.69 80.4691ZM119.795 68.3119C119.953 68.154 119.953 67.3646 119.953 66.6804C119.953 65.8384 119.953 65.2068 119.9 64.6805C119.847 63.9964 119.795 63.3648 119.637 62.8912C119.479 62.4701 119.111 62.1544 118.584 62.1544C117.953 62.1544 117.584 62.5228 117.479 63.1543C117.321 64.049 117.269 65.2594 117.269 66.5752C117.269 67.8909 117.374 68.2066 117.69 68.4172C117.847 68.5224 118.111 68.575 118.426 68.575C119.268 68.4698 119.637 68.4172 119.795 68.3119Z" fill="white"/>
<path d="M129.11 80.1525C128.426 79.3631 128.005 77.9948 127.847 76.6264C127.689 75.3107 127.637 74.1529 127.637 72.9951C127.637 72.2583 127.637 71.3636 127.847 69.6268C128.005 68.1006 128.742 66.627 129.847 65.6271C130.689 64.8903 131.742 64.5745 132.952 64.5745C133.794 64.5745 134.584 64.7324 135.057 64.8377C135.426 64.9429 135.794 65.0482 136.11 65.0482C136.531 65.0482 136.741 64.6798 136.741 64.1535C136.741 63.7325 136.583 63.2588 136.32 62.9957C135.794 62.4694 135.005 62.2589 134.057 62.2589C133.32 62.2589 132.531 62.4167 132.057 62.522C131.584 62.6273 131.163 62.8378 130.742 62.943C130.321 63.0483 129.9 63.2062 129.531 63.2062C129.268 63.2062 129.058 63.1535 128.847 62.9957C128.689 62.8378 128.637 62.4694 128.584 62.0483C128.531 61.6273 128.531 61.3115 128.531 60.4695V58.5749C128.531 57.9433 128.689 57.5749 129.163 57.3644C129.636 57.1539 130.794 56.8908 132.11 56.6802C133.057 56.5224 133.899 56.4697 135.215 56.4697C137.215 56.4697 138.689 56.8908 140.057 57.6276C141.636 58.5222 142.32 60.4169 142.53 61.8905C142.688 63.1009 142.636 64.4693 142.636 65.8902L142.688 71.1004C142.688 73.7319 142.741 75.3107 142.741 77.0475C142.741 77.9948 142.636 78.8368 142.636 79.7841V80.7314C142.583 81.1525 142.057 81.3104 141.32 81.3104H139.32C139.057 81.3104 138.004 81.3104 137.478 81.3104C137.215 81.3104 137.11 81.1525 137.11 80.8893V80.1525C137.11 79.8894 137.004 79.7315 136.794 79.7315C136.583 79.7315 136.268 80.2052 135.899 80.5209C135.215 81.2577 134.215 81.5735 132.794 81.5735C131.268 81.7314 130.005 81.2577 129.11 80.1525ZM136.478 74.8897C136.531 73.8371 136.531 72.0477 136.531 71.5215C136.531 70.8899 136.531 70.4689 136.373 69.9952C136.215 69.5216 135.952 69.1532 135.268 69.1532C134.794 69.1532 134.215 69.4163 134.057 69.9952C133.899 70.5215 133.847 71.0478 133.847 71.9425C133.847 73.1003 133.847 73.995 133.899 74.9423C133.952 75.8896 134.32 76.7843 135.215 76.7843C136.057 76.7843 136.426 76.1001 136.478 74.8897Z" fill="white"/>
<path d="M147.741 80.4157C146.425 79.2052 145.583 77.3632 145.267 75.2581C145.057 73.9424 144.899 71.2057 144.899 68.1006C144.899 64.1535 145.53 60.7853 146.741 59.259C147.741 57.9959 148.635 57.3644 149.846 56.8908C150.846 56.575 151.793 56.4697 152.688 56.4697C153.477 56.4697 154.214 56.6276 154.74 56.7855C155.267 56.9434 155.582 57.1539 155.635 57.6802C155.688 58.1538 155.688 58.6801 155.688 59.1538C155.688 59.8906 155.635 61.3642 155.582 61.9431C155.53 62.8378 155.372 63.1009 154.688 63.1009C154.319 63.1009 153.951 62.8904 153.319 62.8904C152.425 62.8904 152.004 63.6272 151.741 64.5219C151.583 65.2061 151.425 66.3113 151.372 67.4165C151.319 68.9427 151.319 70.1005 151.372 71.3636C151.425 72.3109 151.477 72.9951 151.635 73.574C151.951 74.6266 152.319 75.3633 153.267 75.3633C153.951 75.3633 154.161 75.1528 154.635 75.1528C155.319 75.1528 155.635 75.3633 155.635 76.5212L155.688 79.1C155.688 79.5736 155.688 80.0999 155.635 80.4683C155.53 81.0998 155.214 81.2577 154.688 81.4683C154.161 81.6261 153.53 81.784 152.372 81.784C150.635 81.8893 148.899 81.5735 147.741 80.4157Z" fill="white"/>
<path d="M157.687 79.8366C157.687 79.4682 157.793 78.0473 157.793 76.0474C157.793 73.9423 157.845 71.9424 157.845 69.8372C157.845 67.9952 157.74 65.9427 157.74 64.5744C157.74 63.2587 157.793 61.2062 157.793 60.3115L157.74 55.7328C157.74 53.5224 157.687 51.6804 157.687 50.9962C157.687 49.9437 157.951 49.891 158.793 49.7858C159.635 49.6805 161.529 49.6279 163.055 49.7332C163.792 49.7858 164.319 50.1542 164.319 51.1015C164.319 52.2067 164.266 53.3645 164.266 54.9434C164.266 56.0486 164.213 56.5749 164.213 57.4169C164.213 57.7327 164.266 57.9432 164.476 57.9432C164.687 57.9432 165.003 57.6801 165.319 57.4169C165.582 57.2064 166.003 56.8906 166.424 56.6801C166.845 56.5222 167.424 56.3643 168.371 56.3643C169.581 56.3643 170.897 56.7854 171.581 57.5748C172.108 58.2063 172.423 58.8905 172.634 59.6273C172.844 60.3641 173.055 61.3114 173.108 62.1008C173.16 63.1534 173.265 64.5744 173.265 65.5217C173.265 69.1531 173.213 70.3635 173.213 73.6265L173.265 78.2578C173.265 78.8367 173.318 79.363 173.318 79.9419C173.318 81.1523 173.002 81.3102 171.897 81.3102C171.16 81.3102 170.423 81.2576 169.739 81.2576L167.739 81.3102C167.318 81.3102 166.95 81.0997 166.845 80.5208C166.792 80.1524 166.792 79.6261 166.792 78.8893V72.4687C166.792 70.4161 166.845 68.1531 166.845 66.1532V64.2586C166.845 63.5218 166.687 63.0482 166.582 62.785C166.424 62.5219 166.055 62.2587 165.529 62.2587C165.003 62.2587 164.582 62.4692 164.371 62.8903C164.213 63.206 164.055 63.6797 164.055 64.4165L164.108 71.5213C164.108 72.5739 164.161 75.1001 164.161 76.2579C164.161 77.2052 164.213 78.4157 164.213 79.7314C164.213 80.3103 164.266 80.784 164.055 81.0471C163.898 81.205 163.792 81.3102 163.319 81.3102C162.687 81.3102 161.95 81.2576 161.161 81.2576C160.424 81.2576 159.529 81.4155 159.003 81.4155C158.161 81.5734 157.687 81.205 157.687 79.8366Z" fill="white"/>
</svg>
