<svg width="78" height="78" viewBox="0 0 78 78" fill="none" xmlns="http://www.w3.org/2000/svg">
<path d="M12.327 42.6433L1.96061 41.5733L1.5625 38.5827L15.8731 40.8417L16.2399 43.5831L3.0197 49.4909L2.60614 46.4042L12.3316 42.6814L12.327 42.6433ZM15.5023 38.3768L13.0971 37.879L13.634 35.2839L4.84755 33.4634L4.31122 36.0586L1.90601 35.5632L3.56733 27.5324L5.97192 28.0302L5.43504 30.6248L14.2215 32.4451L14.7584 29.8505L17.163 30.3477L15.5023 38.3768ZM20.1563 26.2245C19.2254 27.6186 17.9528 28.3113 16.3384 28.3026C14.7239 28.2939 13.0163 27.6871 11.2157 26.4823C10.0688 25.7154 9.148 24.8714 8.45333 23.9502C7.75874 23.029 7.35743 22.0515 7.24932 21.0177C7.14129 19.9861 7.39971 19.0037 8.02449 18.0703C8.74076 16.9986 9.71654 16.3327 10.9518 16.0724C12.1871 15.8123 13.4673 16.0476 14.7925 16.7784L13.1801 19.191C11.7219 18.4958 10.7027 18.5825 10.1226 19.451C9.68581 20.1052 9.75406 20.8447 10.3274 21.6696C10.9007 22.4944 11.7552 23.2865 12.8912 24.0458C13.3741 24.3715 13.8812 24.6598 14.408 24.9082C14.8784 25.1295 15.369 25.305 15.8731 25.4321C16.352 25.5512 16.788 25.5551 17.1812 25.4441C17.5594 25.3436 17.8871 25.1069 18.1014 24.7796C18.6599 23.9434 18.2908 22.9293 16.9941 21.7373L18.6031 19.3247C19.7891 20.3346 20.5237 21.469 20.8069 22.7277C21.0901 23.9864 20.8733 25.152 20.1563 26.2245ZM22.8214 21.8431L15.4124 10.0982L23.0659 5.26789L24.3741 7.34542L19.1246 10.6585L20.683 13.1286L25.4279 10.1345L26.736 12.2115L21.9933 15.2049L23.9128 18.2472L29.4403 14.7589L30.7485 16.8365L22.8214 21.8431ZM36.681 15.354L38.2899 1.56055L42.1124 2.00655L42.2779 12.2684L42.3348 12.2753L44.8002 2.32003L48.6028 2.7637L46.9939 16.5571L44.4806 16.2642L45.3906 8.48375L45.6869 6.27877L45.6101 6.26964L43.2152 16.1163L40.3858 15.7869L40.3794 5.66093L40.3226 5.65414L40.0837 7.86537L39.1737 15.6464L36.681 15.354ZM48.112 17.1254L55.7115 5.50345L63.2854 10.4582L61.9409 12.5142L56.7466 9.11571L55.1479 11.5619L59.8411 14.6338L58.4972 16.6897L53.8039 13.6178L51.835 16.6283L57.3051 20.2036L55.9606 22.2589L48.112 17.1254ZM56.7881 23.255L68.6884 16.1015L70.9497 19.8623C71.8123 21.2992 71.9382 22.6979 71.3273 24.0582C70.7165 25.4186 69.5711 26.6036 67.8911 27.6132C66.7536 28.2958 65.639 28.7627 64.5474 29.0137C63.4558 29.2648 62.4061 29.2268 61.3983 28.8999C60.3897 28.5734 59.5867 27.9128 58.9891 26.918L56.7881 23.255ZM60.3075 24.4565L60.8654 25.3849C61.1111 25.7937 61.438 26.0749 61.8459 26.2285C62.2779 26.3841 62.7423 26.4272 63.1955 26.3537C63.7043 26.2791 64.202 26.1427 64.6777 25.9475C65.199 25.7345 65.7028 25.4808 66.1843 25.1886C68.7143 23.6679 69.5485 22.1888 68.6866 20.7514L68.0992 19.7735L60.3075 24.4565ZM61.321 30.8984L63.7376 30.462L64.2084 33.0692L73.0376 31.4764L72.5671 28.8687L74.9837 28.4323L76.4437 36.4989L74.0265 36.9353L73.5562 34.3276L64.7266 35.9204L65.1969 38.5281L62.7803 38.9644L61.321 30.8984ZM63.1 40.3195L75.1663 48.3627L74.192 51.5638L59.7103 51.4614L60.6282 48.4464L63.5743 48.5954L64.7339 44.784L62.2105 43.248L63.1 40.3195ZM66.848 46.0702L66.0426 48.716L71.6851 49.0386L71.6964 49.0016L66.848 46.0702ZM7.71171 60.0719C7.1656 59.2827 6.94347 58.314 7.09122 57.3657C7.23185 56.385 7.65336 55.4407 8.35552 54.5328C9.05775 53.6249 9.96489 52.7966 11.0769 52.0479C12.8734 50.8385 14.5976 50.2374 16.2496 50.2446C17.9016 50.2518 19.1847 50.9344 20.0988 52.2925C20.7684 53.2877 20.9974 54.3613 20.7858 55.5135C20.5743 56.6656 19.8969 57.7202 18.7538 58.677L17.1453 56.2877C17.8358 55.6983 18.2394 55.2129 18.3562 54.8314C18.415 54.653 18.4311 54.4633 18.4033 54.2776C18.3754 54.0918 18.3044 53.9152 18.1958 53.7619C17.764 53.1202 17.0625 52.8693 16.0915 53.0093C15.1205 53.1492 13.9883 53.655 12.695 54.5265C10.0534 56.3048 9.19691 57.8838 10.1254 59.2635C10.3909 59.6594 10.7744 59.8714 11.276 59.8995C11.7776 59.9276 12.5773 59.6496 13.675 59.0655L12.7359 57.6695L14.677 56.3611L17.0521 59.8915L10.8454 64.0705L9.76482 62.4662L11.0468 61.2534C10.2566 61.443 9.62021 61.4673 9.13755 61.3262C8.65488 61.1852 8.17963 60.767 7.71171 60.0719ZM15.4147 68.3791L22.8049 56.6228L27.4378 59.5365C28.3762 60.1262 28.9586 60.9075 29.185 61.8803C29.4113 62.853 29.2028 63.8524 28.5594 64.8782C27.7017 66.2435 26.5095 66.7959 24.9825 66.5353C25.4205 67.2673 25.6033 67.8849 25.5309 68.3881C25.4584 68.8914 25.1236 69.6177 24.5265 70.5669C23.8819 71.5932 23.5325 72.2339 23.4782 72.4892C23.4618 72.6008 23.4685 72.7147 23.4979 72.8237C23.5272 72.9327 23.5786 73.0346 23.6489 73.1229L23.4533 73.434L20.7358 71.7275C20.8837 71.1047 21.2768 70.2857 21.9154 69.2705C22.1759 68.856 22.36 68.5568 22.4676 68.3728C22.5902 68.1577 22.6937 67.9324 22.777 67.6992C22.8756 67.4338 22.9016 67.2292 22.8549 67.0855C22.7898 66.9098 22.6956 66.7464 22.5762 66.6019C22.4375 66.4229 22.2261 66.2443 21.9421 66.066L20.7142 65.2935L17.8221 69.8946L15.4147 68.3791ZM21.9586 63.3104L23.53 64.2985C24.0108 64.6019 24.4446 64.6996 24.8313 64.5915C25.218 64.4835 25.5898 64.1461 25.9466 63.5795C26.2552 63.0865 26.388 62.6403 26.3447 62.241C26.3015 61.8416 26.0827 61.5174 25.6884 61.2682L23.9366 60.1662L21.9586 63.3104ZM29.0804 68.3074C29.4477 66.1207 30.177 64.4453 31.2683 63.2814C32.3595 62.1175 33.7055 61.6706 35.3063 61.9406C36.8821 62.206 38.0114 63.0694 38.6943 64.5307C39.3771 65.9919 39.5347 67.8162 39.1669 70.0038C38.8037 72.1655 38.0658 73.8326 36.9534 75.0053C35.8409 76.1779 34.4966 76.6319 32.9205 76.3672C31.3314 76.1017 30.201 75.2448 29.5291 73.7964C28.8572 72.3481 28.7076 70.5184 29.0804 68.3074ZM31.924 68.7852C31.6863 70.1964 31.6772 71.3782 31.8967 72.3304C32.1163 73.2827 32.6008 73.8219 33.3505 73.9478C33.8202 74.027 34.2617 73.8693 34.675 73.4744C35.0883 73.0797 35.4296 72.5423 35.6987 71.8623C35.9894 71.1078 36.1991 70.3247 36.3244 69.5259C36.5572 68.1402 36.5619 66.9645 36.3386 65.9989C36.1153 65.0334 35.6413 64.4896 34.9167 64.3674C34.1797 64.2434 33.554 64.5991 33.0399 65.4346C32.5258 66.2701 32.153 67.3869 31.9217 68.7852H31.924ZM49.3086 60.796L51.5062 69.5567C51.9203 71.2075 51.8479 72.5616 51.289 73.619C50.7301 74.6763 49.6943 75.395 48.1814 75.775C46.8187 76.1163 45.6422 75.9695 44.6518 75.3347C43.6614 74.6998 42.9642 73.5753 42.56 71.9613L40.3248 63.0499L43.1941 62.3297L45.3872 71.0721C45.8388 72.8731 46.5897 73.6419 47.64 73.3784C48.1655 73.2463 48.5209 72.9277 48.7063 72.4226C48.8917 71.9175 48.8779 71.2397 48.6648 70.3895L46.4388 61.5151L49.3086 60.796ZM58.3009 65.2639L61.4364 69.1704L59.1746 70.9868L50.4825 60.1572L54.8254 56.67C55.7202 55.9517 56.6831 55.6993 57.714 55.9128C58.7449 56.1263 59.6801 56.7561 60.5196 57.8021C61.3272 58.8078 61.7147 59.8568 61.6821 60.9491C61.6495 62.0413 61.186 62.9467 60.2915 63.6654L58.3009 65.2639ZM56.8001 63.3935L58.2924 62.1949C59.1168 61.5331 59.0891 60.6542 58.2094 59.5582C57.7737 59.0147 57.3461 58.7133 56.9264 58.6542C56.5066 58.5951 56.0554 58.7589 55.5727 59.1457L54.2453 60.2113L56.8001 63.3935Z" fill="white"/>
</svg>
