<svg width="168" height="54" viewBox="0 0 168 54" fill="none" xmlns="http://www.w3.org/2000/svg">
<path d="M110.387 13.448C111.802 15.0328 114.859 14.9762 116.67 16.1082C114.236 16.7308 111.123 16.7308 108.916 17.5799C109.425 16.278 109.934 14.863 110.387 13.448ZM82.2003 31.8431C80.6721 35.5222 83.4455 37.39 86.6718 37.39C93.9166 37.39 99.237 31.3337 106.652 31.4469C107.557 29.4659 106.878 26.8623 105.916 25.5039C105.576 26.6925 105.237 27.8811 104.557 28.7867C99.6898 29.0697 94.709 30.0319 89.9546 29.9753C90.8036 26.2397 92.3318 22.4475 93.0676 19.1081C89.7848 23.0701 84.4077 26.6359 82.2003 31.8431ZM117.745 1.56196C116.557 1.61857 115.255 1.95817 114.18 1.84497C112.595 1.73177 111.18 0.882762 109.708 0.656361C101.784 -0.702047 94.5392 1.90157 88.9924 4.39198C87.8038 4.90138 85.7662 6.42959 84.6908 6.48619C83.3889 6.54279 80.9551 5.18438 79.1439 4.67498C71.2199 2.41097 59.2206 -0.588847 53.0512 4.22218C45.2969 3.09017 38.1653 5.01458 32.3354 6.76919C31.9958 2.12797 27.6942 -0.645447 22.6568 0.826161C19.2042 1.73177 16.4308 3.65618 13.0347 4.95798C6.3559 7.5616 -0.379536 13.0518 0.0166658 21.6551C0.243067 25.7303 1.99768 29.0697 3.18628 31.9563C4.37489 35.0128 5.6767 37.39 7.65771 40.8992C7.09171 41.918 6.6389 42.5972 6.4691 43.7292C5.16729 53.4645 18.1288 53.7475 24.9774 50.9174C30.8638 48.427 37.0333 44.0688 41.2217 40.8992C37.8823 55.2757 60.4092 55.8983 66.1258 48.6534C74.1631 54.6531 91.5394 53.9739 100.143 48.9364C108.067 55.3323 125.669 52.8984 136.367 50.408C141.914 49.1062 146.781 48.0874 150.404 45.4838C154.083 42.8236 156.403 38.6918 157.422 33.4279C156.686 31.3903 155.385 29.9187 154.139 28.3339C154.762 27.0321 154.932 24.7115 154.592 22.9569C159.29 19.6175 163.139 14.4102 166.648 9.99541C167.044 9.48601 167.893 8.7502 167.667 8.071C151.706 5.58059 136.254 0.65636 117.745 1.56196ZM156.969 12.1462C157.252 12.8254 156.403 13.2216 156.064 13.6178C152.951 17.2969 149.215 20.0703 142.649 20.4665C137.895 20.7495 133.027 19.7873 128.047 19.8439C126.971 20.6929 126.801 22.5041 125.952 23.5795C132.801 24.8813 137.499 21.0891 144.008 21.4853C146.328 21.6551 148.762 22.6173 148.932 24.4851C149.215 27.2585 146.442 29.7489 144.178 30.5979C139.423 32.4091 130.877 31.3903 124.934 32.4091C122.896 32.7487 120.406 33.7109 120.745 35.0694C120.972 35.975 124.085 36.4278 125.5 36.541C133.367 37.107 139.14 34.1071 145.027 33.2581C147.008 32.9751 149.951 32.8619 151.14 33.8807C150.064 41.1822 144.178 42.4274 136.82 44.182C128.839 46.1064 118.934 48.427 109.085 46.446C105.293 45.6536 103.425 45.1442 104.161 40.3332C98.105 43.9556 86.8416 49.276 75.6913 46.2762C70.4275 44.8612 65.6164 42.9368 65.5598 36.4278C64.824 38.0126 64.0882 39.5408 63.1826 41.352C62.5034 42.767 61.9374 44.9744 60.6356 45.9932C58.032 47.9742 48.1835 47.8044 47.0515 44.8046C45.9761 42.0312 48.1835 36.2014 48.8627 34.3901C50.6174 29.5791 53.1078 26.4095 51.8626 20.5231C50.5607 21.2589 49.7117 22.6173 48.7495 23.8059C43.0329 30.4281 37.5993 37.4466 29.5054 41.9746C25.7698 44.0688 21.6946 46.6158 16.6572 46.6158C14.9026 46.6158 13.1479 46.446 12.3555 45.2574C12.5253 43.2198 14.3931 42.8236 15.1856 41.4086C12.2989 37.3334 9.86512 32.9185 7.88411 27.7113C6.97851 25.2775 5.6767 23.0701 6.0729 19.6741C6.7521 13.5046 12.6385 11.5802 17.9024 9.42941C20.7324 8.2974 23.1096 6.03339 25.9396 6.42959C26.9584 9.37281 25.7698 12.316 25.2038 15.2592C24.2416 19.9571 23.053 24.9379 24.185 30.4847C26.0528 29.6357 27.1282 28.1075 28.2036 26.2963C29.1092 24.8247 30.8072 22.4475 31.0336 20.6363C31.26 18.7685 30.0714 16.9573 30.5808 15.0894C31.4298 12.2028 37.9389 11.0708 41.0519 10.4482C44.3347 9.76901 47.6741 9.42941 51.3532 9.82561C52.372 9.93881 53.6738 10.5048 54.4662 10.4482C55.4284 10.335 56.2774 8.92 57.2962 8.354C60.8054 6.37299 66.7484 7.9012 70.9935 8.8068C73.9933 9.42941 76.9931 10.2784 79.9363 11.0708C78.5779 12.9386 76.8799 14.8064 75.2951 16.9007C73.7669 18.9383 72.4085 21.1457 71.1067 23.2965C74.7291 19.6741 79.8231 15.995 85.4832 12.882C92.6148 8.97661 102.237 3.88258 112.199 7.3352C112.142 8.4672 111.689 9.31621 111.463 10.335C111.463 10.4482 111.406 10.4482 111.293 10.5048C112.538 9.82561 113.897 7.7314 115.764 7.505C129.914 5.75039 145.479 10.3916 156.969 12.1462Z" fill="white"/>
</svg>
