<svg width="1497" height="920" viewBox="0 0 1497 920" fill="none" xmlns="http://www.w3.org/2000/svg">
<path d="M56.8901 439.6V918.515H1.31348V1.875H53.1975L97.0489 448.933L98.0465 448.885V1.875H153.948V918.515H105.64L57.8876 439.551L56.8901 439.6Z" fill="white"/>
<path d="M56.8901 439.6V918.515H1.31348V1.875H53.1975L97.0489 448.933L98.0465 448.885V1.875H153.948V918.515H105.64L57.8876 439.551L56.8901 439.6Z" stroke="black"/>
<path d="M56.8901 439.6V918.515H1.31348V1.875H53.1975L97.0489 448.933L98.0465 448.885V1.875H153.948V918.515H105.64L57.8876 439.551L56.8901 439.6Z" stroke="black" stroke-opacity="0.2"/>
<path d="M97.233 432.342V1.03125H154.761V919.359H104.989L58.6999 455.757L57.7024 455.806V919.19H0.5V1.03125H53.8473L96.2354 432.391L97.233 432.342ZM105.502 918.221L105.547 918.671H106H153.797H154.297V918.171V2.21933V1.71933H153.797H98.5213H98.0213V2.21933V448.434L97.344 448.505L53.4975 2.33924L53.4532 1.88814H52.9999H1.62576H1.12576V2.38814V918.34V918.84H1.62576H56.5766H57.0766V918.34V439.883L57.7547 439.812L105.502 918.221Z" fill="white"/>
<path d="M97.233 432.342V1.03125H154.761V919.359H104.989L58.6999 455.757L57.7024 455.806V919.19H0.5V1.03125H53.8473L96.2354 432.391L97.233 432.342ZM105.502 918.221L105.547 918.671H106H153.797H154.297V918.171V2.21933V1.71933H153.797H98.5213H98.0213V2.21933V448.434L97.344 448.505L53.4975 2.33924L53.4532 1.88814H52.9999H1.62576H1.12576V2.38814V918.34V918.84H1.62576H56.5766H57.0766V918.34V439.883L57.7547 439.812L105.502 918.221Z" stroke="black"/>
<path d="M97.233 432.342V1.03125H154.761V919.359H104.989L58.6999 455.757L57.7024 455.806V919.19H0.5V1.03125H53.8473L96.2354 432.391L97.233 432.342ZM105.502 918.221L105.547 918.671H106H153.797H154.297V918.171V2.21933V1.71933H153.797H98.5213H98.0213V2.21933V448.434L97.344 448.505L53.4975 2.33924L53.4532 1.88814H52.9999H1.62576H1.12576V2.38814V918.34V918.84H1.62576H56.5766H57.0766V918.34V439.883L57.7547 439.812L105.502 918.221Z" stroke="black" stroke-opacity="0.2"/>
<path d="M184.371 459.494C184.371 321.693 194.206 207.06 211.407 126.891C220.009 86.8025 230.446 55.3633 242.397 33.9588C254.364 12.5281 267.758 1.30664 282.224 1.30664C296.361 1.30664 309.512 12.5113 321.298 33.9331C333.067 55.3256 343.383 86.7502 351.903 126.829C368.942 206.978 378.777 321.612 378.777 459.494C378.777 597.376 368.942 712.295 351.903 792.73C343.383 832.952 333.067 864.52 321.297 886.02C309.511 907.55 296.359 918.824 282.224 918.824C267.759 918.824 254.365 907.533 242.398 885.994C230.446 864.482 220.009 832.9 211.407 792.668C194.206 712.213 184.371 597.294 184.371 459.494ZM322.391 459.494C322.391 375.714 318.57 306.125 311.595 257.471C308.108 233.149 303.83 214.031 298.834 200.982C296.336 194.459 293.648 189.422 290.767 186.006C287.886 182.59 284.764 180.744 281.411 180.744C278.059 180.744 274.937 182.592 272.055 186.013C269.174 189.433 266.486 194.476 263.989 201.005C258.993 214.067 254.714 233.2 251.228 257.533C244.253 306.207 240.432 375.796 240.432 459.494C240.432 543.273 244.253 613.189 251.228 662.169C254.714 686.654 258.993 705.935 263.989 719.106C266.486 725.69 269.173 730.778 272.054 734.229C274.934 737.681 278.057 739.549 281.411 739.549C284.766 739.549 287.889 737.678 290.769 734.222C293.65 730.767 296.337 725.673 298.834 719.083C303.83 705.899 308.108 686.603 311.595 662.107C318.57 613.107 322.391 543.192 322.391 459.494Z" fill="white"/>
<path d="M184.371 459.494C184.371 321.693 194.206 207.06 211.407 126.891C220.009 86.8025 230.446 55.3633 242.397 33.9588C254.364 12.5281 267.758 1.30664 282.224 1.30664C296.361 1.30664 309.512 12.5113 321.298 33.9331C333.067 55.3256 343.383 86.7502 351.903 126.829C368.942 206.978 378.777 321.612 378.777 459.494C378.777 597.376 368.942 712.295 351.903 792.73C343.383 832.952 333.067 864.52 321.297 886.02C309.511 907.55 296.359 918.824 282.224 918.824C267.759 918.824 254.365 907.533 242.398 885.994C230.446 864.482 220.009 832.9 211.407 792.668C194.206 712.213 184.371 597.294 184.371 459.494ZM322.391 459.494C322.391 375.714 318.57 306.125 311.595 257.471C308.108 233.149 303.83 214.031 298.834 200.982C296.336 194.459 293.648 189.422 290.767 186.006C287.886 182.59 284.764 180.744 281.411 180.744C278.059 180.744 274.937 182.592 272.055 186.013C269.174 189.433 266.486 194.476 263.989 201.005C258.993 214.067 254.714 233.2 251.228 257.533C244.253 306.207 240.432 375.796 240.432 459.494C240.432 543.273 244.253 613.189 251.228 662.169C254.714 686.654 258.993 705.935 263.989 719.106C266.486 725.69 269.173 730.778 272.054 734.229C274.934 737.681 278.057 739.549 281.411 739.549C284.766 739.549 287.889 737.678 290.769 734.222C293.65 730.767 296.337 725.673 298.834 719.083C303.83 705.899 308.108 686.603 311.595 662.107C318.57 613.107 322.391 543.192 322.391 459.494Z" stroke="black"/>
<path d="M184.371 459.494C184.371 321.693 194.206 207.06 211.407 126.891C220.009 86.8025 230.446 55.3633 242.397 33.9588C254.364 12.5281 267.758 1.30664 282.224 1.30664C296.361 1.30664 309.512 12.5113 321.298 33.9331C333.067 55.3256 343.383 86.7502 351.903 126.829C368.942 206.978 378.777 321.612 378.777 459.494C378.777 597.376 368.942 712.295 351.903 792.73C343.383 832.952 333.067 864.52 321.297 886.02C309.511 907.55 296.359 918.824 282.224 918.824C267.759 918.824 254.365 907.533 242.398 885.994C230.446 864.482 220.009 832.9 211.407 792.668C194.206 712.213 184.371 597.294 184.371 459.494ZM322.391 459.494C322.391 375.714 318.57 306.125 311.595 257.471C308.108 233.149 303.83 214.031 298.834 200.982C296.336 194.459 293.648 189.422 290.767 186.006C287.886 182.59 284.764 180.744 281.411 180.744C278.059 180.744 274.937 182.592 272.055 186.013C269.174 189.433 266.486 194.476 263.989 201.005C258.993 214.067 254.714 233.2 251.228 257.533C244.253 306.207 240.432 375.796 240.432 459.494C240.432 543.273 244.253 613.189 251.228 662.169C254.714 686.654 258.993 705.935 263.989 719.106C266.486 725.69 269.173 730.778 272.054 734.229C274.934 737.681 278.057 739.549 281.411 739.549C284.766 739.549 287.889 737.678 290.769 734.222C293.65 730.767 296.337 725.673 298.834 719.083C303.83 705.899 308.108 686.603 311.595 662.107C318.57 613.107 322.391 543.192 322.391 459.494Z" stroke="black" stroke-opacity="0.2"/>
<path d="M434.889 174.072H387.592V1.875H538.438V174.072H491.466H490.966V174.572V918.515H435.389V174.572V174.072H434.889Z" fill="white"/>
<path d="M434.889 174.072H387.592V1.875H538.438V174.072H491.466H490.966V174.572V918.515H435.389V174.572V174.072H434.889Z" stroke="black"/>
<path d="M434.889 174.072H387.592V1.875H538.438V174.072H491.466H490.966V174.572V918.515H435.389V174.572V174.072H434.889Z" stroke="black" stroke-opacity="0.2"/>
<path d="M491.781 175.247V919.359H434.579V175.247V174.747H434.079H386.781V1.03125H539.253V174.747H492.281H491.781V175.247ZM435.204 918.171V918.671H435.704H490.655H491.155V918.171V174.059H538.128H538.628V173.559V2.21933V1.71933H538.128H387.907H387.407V2.21933V173.559V174.059H387.907H435.204V918.171Z" fill="white"/>
<path d="M491.781 175.247V919.359H434.579V175.247V174.747H434.079H386.781V1.03125H539.253V174.747H492.281H491.781V175.247ZM435.204 918.171V918.671H435.704H490.655H491.155V918.171V174.059H538.128H538.628V173.559V2.21933V1.71933H538.128H387.907H387.407V2.21933V173.559V174.059H387.907H435.204V918.171Z" stroke="black"/>
<path d="M491.781 175.247V919.359H434.579V175.247V174.747H434.079H386.781V1.03125H539.253V174.747H492.281H491.781V175.247ZM435.204 918.171V918.671H435.704H490.655H491.155V918.171V174.059H538.128H538.628V173.559V2.21933V1.71933H538.128H387.907H387.407V2.21933V173.559V174.059H387.907H435.204V918.171Z" stroke="black" stroke-opacity="0.2"/>
<path d="M723.488 1.875L794.944 918.515H736.289L722.987 703.247L722.958 702.778H722.488H663.96H663.489L663.461 703.248L650.483 918.515H590.366L662.471 1.875H723.488ZM674.191 531.402L674.159 531.932H674.69H711.432H711.965L711.931 531.4L693.073 232.948L692.074 232.949L674.191 531.402Z" fill="white"/>
<path d="M723.488 1.875L794.944 918.515H736.289L722.987 703.247L722.958 702.778H722.488H663.96H663.489L663.461 703.248L650.483 918.515H590.366L662.471 1.875H723.488ZM674.191 531.402L674.159 531.932H674.69H711.432H711.965L711.931 531.4L693.073 232.948L692.074 232.949L674.191 531.402Z" stroke="black"/>
<path d="M723.488 1.875L794.944 918.515H736.289L722.987 703.247L722.958 702.778H722.488H663.96H663.489L663.461 703.248L650.483 918.515H590.366L662.471 1.875H723.488ZM674.191 531.402L674.159 531.932H674.69H711.432H711.965L711.931 531.4L693.073 232.948L692.074 232.949L674.191 531.402Z" stroke="black" stroke-opacity="0.2"/>
<path d="M661.651 1.03125H724.093V1.37529V1.39477L724.095 1.4142L795.749 919.359H735.468L722.166 704.092L722.137 703.623H721.667H664.603H664.132L664.104 704.092L651.126 919.359H589.342V919.035L661.651 1.03125ZM736.125 918.203L736.155 918.671H736.624H794.664H795.204L795.162 918.132L723.629 2.1804L723.593 1.71933H723.13H662.652H662.19L662.153 2.18005L589.969 918.132L589.927 918.671H590.468H649.971H650.442L650.47 918.201L663.448 702.934H722.498L736.125 918.203ZM674.996 530.558L674.964 531.088H675.495H710.449H710.982L710.948 530.557L693.065 246.284L692.067 246.286L674.996 530.558ZM693.072 233.48L711.705 531.776H674.401L692.386 233.48H693.072Z" fill="white"/>
<path d="M661.651 1.03125H724.093V1.37529V1.39477L724.095 1.4142L795.749 919.359H735.468L722.166 704.092L722.137 703.623H721.667H664.603H664.132L664.104 704.092L651.126 919.359H589.342V919.035L661.651 1.03125ZM736.125 918.203L736.155 918.671H736.624H794.664H795.204L795.162 918.132L723.629 2.1804L723.593 1.71933H723.13H662.652H662.19L662.153 2.18005L589.969 918.132L589.927 918.671H590.468H649.971H650.442L650.47 918.201L663.448 702.934H722.498L736.125 918.203ZM674.996 530.558L674.964 531.088H675.495H710.449H710.982L710.948 530.557L693.065 246.284L692.067 246.286L674.996 530.558ZM693.072 233.48L711.705 531.776H674.401L692.386 233.48H693.072Z" stroke="black"/>
<path d="M661.651 1.03125H724.093V1.37529V1.39477L724.095 1.4142L795.749 919.359H735.468L722.166 704.092L722.137 703.623H721.667H664.603H664.132L664.104 704.092L651.126 919.359H589.342V919.035L661.651 1.03125ZM736.125 918.203L736.155 918.671H736.624H794.664H795.204L795.162 918.132L723.629 2.1804L723.593 1.71933H723.13H662.652H662.19L662.153 2.18005L589.969 918.132L589.927 918.671H590.468H649.971H650.442L650.47 918.201L663.448 702.934H722.498L736.125 918.203ZM674.996 530.558L674.964 531.088H675.495H710.449H710.982L710.948 530.557L693.065 246.284L692.067 246.286L674.996 530.558ZM693.072 233.48L711.705 531.776H674.401L692.386 233.48H693.072Z" stroke="black" stroke-opacity="0.2"/>
<path d="M894.499 174.072H847.201V1.875H998.048V174.072H951.075H950.575V174.572V918.515H894.999V174.572V174.072H894.499Z" fill="white"/>
<path d="M894.499 174.072H847.201V1.875H998.048V174.072H951.075H950.575V174.572V918.515H894.999V174.572V174.072H894.499Z" stroke="black"/>
<path d="M894.499 174.072H847.201V1.875H998.048V174.072H951.075H950.575V174.572V918.515H894.999V174.572V174.072H894.499Z" stroke="black" stroke-opacity="0.2"/>
<path d="M951.387 175.247V919.359H894.184V175.247V174.747H893.684H846.387V1.03125H998.859V174.747H951.887H951.387V175.247ZM894.81 918.171V918.671H895.31H950.261H950.761V918.171V174.059H997.733H998.233V173.559V2.21933V1.71933H997.733H847.512H847.012V2.21933V173.559V174.059H847.512H894.81V918.171Z" fill="white"/>
<path d="M951.387 175.247V919.359H894.184V175.247V174.747H893.684H846.387V1.03125H998.859V174.747H951.887H951.387V175.247ZM894.81 918.171V918.671H895.31H950.261H950.761V918.171V174.059H997.733H998.233V173.559V2.21933V1.71933H997.733H847.512H847.012V2.21933V173.559V174.059H847.512H894.81V918.171Z" stroke="black"/>
<path d="M951.387 175.247V919.359H894.184V175.247V174.747H893.684H846.387V1.03125H998.859V174.747H951.887H951.387V175.247ZM894.81 918.171V918.671H895.31H950.261H950.761V918.171V174.059H997.733H998.233V173.559V2.21933V1.71933H997.733H847.512H847.012V2.21933V173.559V174.059H847.512H894.81V918.171Z" stroke="black" stroke-opacity="0.2"/>
<path d="M1079.67 746.318H1158.02V918.515H1023.6V1.875H1155.26V174.072H1079.67H1079.17V174.572V378.323V378.823H1079.67H1146.48V554.902H1079.67H1079.17V555.402V745.818H1079.67V746.318Z" fill="white"/>
<path d="M1079.67 746.318H1158.02V918.515H1023.6V1.875H1155.26V174.072H1079.67H1079.17V174.572V378.323V378.823H1079.67H1146.48V554.902H1079.67H1079.17V555.402V745.818H1079.67V746.318Z" stroke="black"/>
<path d="M1079.67 746.318H1158.02V918.515H1023.6V1.875H1155.26V174.072H1079.67H1079.17V174.572V378.323V378.823H1079.67H1146.48V554.902H1079.67H1079.17V555.402V745.818H1079.67V746.318Z" stroke="black" stroke-opacity="0.2"/>
<path d="M1080.49 745.305H1158.67V919.359H1022.62V1.03125H1155.91V174.747H1080.32H1079.82V175.247V377.31V377.81H1080.32H1147.29V555.578H1080.49H1079.99V556.078V744.805V745.305H1080.49ZM1023.41 918.171V918.671H1023.91H1157.55H1158.05V918.171V746.662V746.162H1157.55H1079.2V555.059H1146.17H1146.67V554.559V378.999V378.499H1146.17H1079.36V174.059H1154.95H1155.45V173.559V2.21933V1.71933H1154.95H1023.91H1023.41V2.21933V918.171Z" fill="white"/>
<path d="M1080.49 745.305H1158.67V919.359H1022.62V1.03125H1155.91V174.747H1080.32H1079.82V175.247V377.31V377.81H1080.32H1147.29V555.578H1080.49H1079.99V556.078V744.805V745.305H1080.49ZM1023.41 918.171V918.671H1023.91H1157.55H1158.05V918.171V746.662V746.162H1157.55H1079.2V555.059H1146.17H1146.67V554.559V378.999V378.499H1146.17H1079.36V174.059H1154.95H1155.45V173.559V2.21933V1.71933H1154.95H1023.91H1023.41V2.21933V918.171Z" stroke="black"/>
<path d="M1080.49 745.305H1158.67V919.359H1022.62V1.03125H1155.91V174.747H1080.32H1079.82V175.247V377.31V377.81H1080.32H1147.29V555.578H1080.49H1079.99V556.078V744.805V745.305H1080.49ZM1023.41 918.171V918.671H1023.91H1157.55H1158.05V918.171V746.662V746.162H1157.55H1079.2V555.059H1146.17H1146.67V554.559V378.999V378.499H1146.17H1079.36V174.059H1154.95H1155.45V173.559V2.21933V1.71933H1154.95H1023.91H1023.41V2.21933V918.171Z" stroke="black" stroke-opacity="0.2"/>
<path d="M1257.34 558.357L1257.33 558.35L1235.78 515.91L1235.78 515.908C1205.46 456.734 1181.31 376.993 1181.31 244.352C1181.31 170.92 1188.49 110.09 1201.57 67.6349C1208.11 46.4053 1216.12 29.8038 1225.41 18.5191C1234.7 7.24149 1245.25 1.30664 1256.89 1.30664C1268.61 1.30664 1279.05 7.23712 1288.13 19.087C1297.23 30.9485 1304.94 48.7096 1311.18 72.2678C1323.63 119.294 1330.16 189.265 1330.18 281.069H1272.41C1272.39 242.063 1270.68 213.87 1267.57 195.4C1266 186.131 1264.08 179.274 1261.82 174.722C1259.57 170.194 1256.9 167.785 1253.79 167.785C1250.67 167.785 1248.15 170.282 1246.14 174.28C1244.11 178.31 1242.49 184.042 1241.23 190.904C1238.72 204.638 1237.61 223.036 1237.61 241.74C1237.61 294.525 1246.11 325.623 1259.55 351.5L1259.55 351.503L1277.18 384.963C1277.18 384.964 1277.18 384.964 1277.18 384.965C1317.79 463.393 1337.04 547.049 1337.04 669.413C1337.04 744.069 1329.86 806.491 1316.39 850.231C1309.65 872.103 1301.36 889.269 1291.63 900.959C1281.91 912.639 1270.78 918.823 1258.36 918.824C1245.78 918.743 1234.6 912.431 1224.9 900.1C1215.18 887.758 1206.97 869.415 1200.33 845.368C1187.09 797.367 1180.19 726.789 1180.17 636.286H1238.27C1238.28 676.601 1240.12 706.102 1243.72 725.554C1245.53 735.316 1247.8 742.588 1250.52 747.431C1253.25 752.273 1256.5 754.794 1260.32 754.794C1264.05 754.794 1267.16 752.276 1269.71 748.006C1272.27 743.729 1274.34 737.588 1275.97 730.078C1279.22 715.051 1280.73 694.402 1280.73 671.861C1280.73 612.525 1269.94 584.048 1257.34 558.357Z" fill="white"/>
<path d="M1257.34 558.357L1257.33 558.35L1235.78 515.91L1235.78 515.908C1205.46 456.734 1181.31 376.993 1181.31 244.352C1181.31 170.92 1188.49 110.09 1201.57 67.6349C1208.11 46.4053 1216.12 29.8038 1225.41 18.5191C1234.7 7.24149 1245.25 1.30664 1256.89 1.30664C1268.61 1.30664 1279.05 7.23712 1288.13 19.087C1297.23 30.9485 1304.94 48.7096 1311.18 72.2678C1323.63 119.294 1330.16 189.265 1330.18 281.069H1272.41C1272.39 242.063 1270.68 213.87 1267.57 195.4C1266 186.131 1264.08 179.274 1261.82 174.722C1259.57 170.194 1256.9 167.785 1253.79 167.785C1250.67 167.785 1248.15 170.282 1246.14 174.28C1244.11 178.31 1242.49 184.042 1241.23 190.904C1238.72 204.638 1237.61 223.036 1237.61 241.74C1237.61 294.525 1246.11 325.623 1259.55 351.5L1259.55 351.503L1277.18 384.963C1277.18 384.964 1277.18 384.964 1277.18 384.965C1317.79 463.393 1337.04 547.049 1337.04 669.413C1337.04 744.069 1329.86 806.491 1316.39 850.231C1309.65 872.103 1301.36 889.269 1291.63 900.959C1281.91 912.639 1270.78 918.823 1258.36 918.824C1245.78 918.743 1234.6 912.431 1224.9 900.1C1215.18 887.758 1206.97 869.415 1200.33 845.368C1187.09 797.367 1180.19 726.789 1180.17 636.286H1238.27C1238.28 676.601 1240.12 706.102 1243.72 725.554C1245.53 735.316 1247.8 742.588 1250.52 747.431C1253.25 752.273 1256.5 754.794 1260.32 754.794C1264.05 754.794 1267.16 752.276 1269.71 748.006C1272.27 743.729 1274.34 737.588 1275.97 730.078C1279.22 715.051 1280.73 694.402 1280.73 671.861C1280.73 612.525 1269.94 584.048 1257.34 558.357Z" stroke="black"/>
<path d="M1257.34 558.357L1257.33 558.35L1235.78 515.91L1235.78 515.908C1205.46 456.734 1181.31 376.993 1181.31 244.352C1181.31 170.92 1188.49 110.09 1201.57 67.6349C1208.11 46.4053 1216.12 29.8038 1225.41 18.5191C1234.7 7.24149 1245.25 1.30664 1256.89 1.30664C1268.61 1.30664 1279.05 7.23712 1288.13 19.087C1297.23 30.9485 1304.94 48.7096 1311.18 72.2678C1323.63 119.294 1330.16 189.265 1330.18 281.069H1272.41C1272.39 242.063 1270.68 213.87 1267.57 195.4C1266 186.131 1264.08 179.274 1261.82 174.722C1259.57 170.194 1256.9 167.785 1253.79 167.785C1250.67 167.785 1248.15 170.282 1246.14 174.28C1244.11 178.31 1242.49 184.042 1241.23 190.904C1238.72 204.638 1237.61 223.036 1237.61 241.74C1237.61 294.525 1246.11 325.623 1259.55 351.5L1259.55 351.503L1277.18 384.963C1277.18 384.964 1277.18 384.964 1277.18 384.965C1317.79 463.393 1337.04 547.049 1337.04 669.413C1337.04 744.069 1329.86 806.491 1316.39 850.231C1309.65 872.103 1301.36 889.269 1291.63 900.959C1281.91 912.639 1270.78 918.823 1258.36 918.824C1245.78 918.743 1234.6 912.431 1224.9 900.1C1215.18 887.758 1206.97 869.415 1200.33 845.368C1187.09 797.367 1180.19 726.789 1180.17 636.286H1238.27C1238.28 676.601 1240.12 706.102 1243.72 725.554C1245.53 735.316 1247.8 742.588 1250.52 747.431C1253.25 752.273 1256.5 754.794 1260.32 754.794C1264.05 754.794 1267.16 752.276 1269.71 748.006C1272.27 743.729 1274.34 737.588 1275.97 730.078C1279.22 715.051 1280.73 694.402 1280.73 671.861C1280.73 612.525 1269.94 584.048 1257.34 558.357Z" stroke="black" stroke-opacity="0.2"/>
<path d="M1391.66 174.072H1344.36V1.875H1495.21V174.072H1448.24H1447.74V174.572V918.515H1392.16V174.572V174.072H1391.66Z" fill="white"/>
<path d="M1391.66 174.072H1344.36V1.875H1495.21V174.072H1448.24H1447.74V174.572V918.515H1392.16V174.572V174.072H1391.66Z" stroke="black"/>
<path d="M1391.66 174.072H1344.36V1.875H1495.21V174.072H1448.24H1447.74V174.572V918.515H1392.16V174.572V174.072H1391.66Z" stroke="black" stroke-opacity="0.2"/>
<path d="M1448.54 175.247V919.359H1391.34V175.247V174.747H1390.84H1343.54V1.03125H1496.01V174.747H1449.04H1448.54V175.247ZM1391.96 918.171V918.671H1392.46H1447.41H1447.91V918.171V174.059H1494.89H1495.39V173.559V2.21933V1.71933H1494.89H1344.66H1344.16V2.21933V173.559V174.059H1344.66H1391.96V918.171Z" fill="white"/>
<path d="M1448.54 175.247V919.359H1391.34V175.247V174.747H1390.84H1343.54V1.03125H1496.01V174.747H1449.04H1448.54V175.247ZM1391.96 918.171V918.671H1392.46H1447.41H1447.91V918.171V174.059H1494.89H1495.39V173.559V2.21933V1.71933H1494.89H1344.66H1344.16V2.21933V173.559V174.059H1344.66H1391.96V918.171Z" stroke="black"/>
<path d="M1448.54 175.247V919.359H1391.34V175.247V174.747H1390.84H1343.54V1.03125H1496.01V174.747H1449.04H1448.54V175.247ZM1391.96 918.171V918.671H1392.46H1447.41H1447.91V918.171V174.059H1494.89H1495.39V173.559V2.21933V1.71933H1494.89H1344.66H1344.16V2.21933V173.559V174.059H1344.66H1391.96V918.171Z" stroke="black" stroke-opacity="0.2"/>
</svg>
